<svg xmlns="http://www.w3.org/2000/svg" viewBox="0 0 720 520"><defs><filter id="s" x="-40%" y="-40%" width="180%" height="180%"><feDropShadow dx="0" dy="10" stdDeviation="12" flood-color="#061923" flood-opacity=".18"/></filter><linearGradient id="scr" x1="0" y1="0" x2="1" y2="1"><stop offset="0" stop-color="#101827"/><stop offset=".55" stop-color="#27516a"/><stop offset="1" stop-color="#36e0b2"/></linearGradient><linearGradient id="met" x1="0" y1="0" x2="1" y2="1"><stop offset="0" stop-color="#f3f6f7"/><stop offset=".5" stop-color="#b9c2c9"/><stop offset="1" stop-color="#717d86"/></linearGradient></defs><ellipse cx="365" cy="442" rx="260" ry="50" fill="#dfe8ec"/><g filter="url(#s)"><rect x="225" y="112" width="285" height="188" rx="18" fill="#202a34"/><rect x="241" y="128" width="253" height="154" rx="10" fill="url(#scr)"/><path d="M188 312h360l-30 38H218z" fill="url(#met)"/></g><g filter="url(#s)"><rect x="128" y="176" width="116" height="228" rx="28" fill="#101820"/><rect x="138" y="187" width="96" height="207" rx="22" fill="url(#scr)"/></g><g filter="url(#s)"><rect x="250" y="274" width="92" height="130" rx="28" fill="#111820"/><rect x="264" y="289" width="64" height="100" rx="18" fill="url(#scr)"/><text x="296" y="330" text-anchor="middle" font-family="Arial" font-size="24" fill="#fff" font-weight="700">10</text><text x="296" y="359" text-anchor="middle" font-family="Arial" font-size="24" fill="#fff" font-weight="700">08</text></g><g filter="url(#s)" fill="none" stroke-linecap="round"><path d="M392 325v-37c0-76 48-128 107-128s107 52 107 128v37" stroke="#1f2933" stroke-width="28"/><rect x="371" y="305" width="70" height="107" rx="30" fill="#202933"/><rect x="568" y="305" width="70" height="107" rx="30" fill="#202933"/></g><g filter="url(#s)"><path d="M356 390c40-10 80-45 106-96 7-13 23-16 34-7l47 41c24 21 46 31 81 35 11 1 19 10 19 21v11c0 13-11 24-24 24H378c-23 0-38-21-28-36z" fill="#f8fafc"/><path d="M381 395h235" stroke="#d6dde3" stroke-width="16" stroke-linecap="round"/></g><circle cx="135" cy="105" r="66" fill="#087d5c"/><text x="135" y="92" text-anchor="middle" font-family="Arial" font-size="22" fill="#fff" font-weight="700">Best</text><text x="135" y="119" text-anchor="middle" font-family="Arial" font-size="22" fill="#fff" font-weight="700">Deals</text><text x="135" y="144" text-anchor="middle" font-family="Arial" font-size="18" fill="#d8fff2">Everyday</text><text x="560" y="86" font-family="Arial" font-size="24" fill="#11313b" font-weight="700">Smart</text><text x="560" y="113" font-family="Arial" font-size="24" fill="#11313b" font-weight="700">Shopping</text><text x="560" y="140" font-family="Arial" font-size="24" fill="#11313b" font-weight="700">Starts Here</text></svg>